<svg width="32" height="32" viewBox="0 0 32 32" fill="none" xmlns="http://www.w3.org/2000/svg">
<path d="M31.8856 23.2913C31.6632 22.6861 31.2397 22.3623 30.7573 22.094C30.6666 22.0409 30.5832 21.9983 30.5121 21.9656C30.3682 21.8912 30.221 21.8192 30.0746 21.7432C28.5711 20.9458 27.397 19.9399 26.5827 18.7475C26.3515 18.4118 26.1509 18.0559 25.9834 17.6843C25.9139 17.4855 25.9172 17.3727 25.9671 17.2696C26.0165 17.1902 26.082 17.122 26.1592 17.0693C26.4176 16.8983 26.6841 16.725 26.8648 16.608C27.1869 16.3995 27.442 16.2343 27.6063 16.1173C28.2236 15.6855 28.6553 15.2267 28.9251 14.7139C29.1134 14.3596 29.2231 13.969 29.247 13.5685C29.2708 13.1679 29.2082 12.767 29.0633 12.3929C28.6545 11.3166 27.6382 10.6484 26.4069 10.6484C26.1472 10.6482 25.8882 10.6756 25.6343 10.7302C25.5665 10.745 25.4986 10.7605 25.4324 10.7777C25.4438 10.0416 25.4275 9.26467 25.3621 8.5C25.1299 5.81178 24.1888 4.40265 23.2077 3.27895C22.5794 2.57479 21.8394 1.97905 21.0174 1.5157C19.5286 0.665154 17.8402 0.233337 15.9998 0.233337C14.1594 0.233337 12.4793 0.665154 10.9888 1.5157C10.1648 1.97919 9.42328 2.57612 8.79443 3.28222C7.81332 4.40592 6.87227 5.81751 6.64008 8.50327C6.57467 9.26795 6.55832 10.049 6.56895 10.7809C6.50272 10.7638 6.43568 10.7482 6.36782 10.7335C6.11391 10.6789 5.85491 10.6515 5.5952 10.6517C4.36309 10.6517 3.34519 11.3199 2.93803 12.3962C2.7925 12.7704 2.72922 13.1717 2.7525 13.5726C2.77578 13.9735 2.88506 14.3647 3.07294 14.7196C3.34356 15.2324 3.77525 15.6912 4.39253 16.123C4.55604 16.2375 4.81195 16.4027 5.13408 16.6137C5.30823 16.7266 5.5625 16.8918 5.81186 17.057C5.89911 17.1134 5.97326 17.1879 6.02934 17.2754C6.08167 17.3825 6.0833 17.4978 6.00563 17.7104C5.84043 18.0743 5.64315 18.4227 5.41615 18.7515C4.61982 19.917 3.4801 20.9049 2.02479 21.6957C1.2538 22.1047 0.452563 22.3778 0.114081 23.2979C-0.141007 23.9922 0.0257811 24.7822 0.674129 25.448C0.912079 25.6964 1.18806 25.9054 1.49172 26.0671C2.12354 26.4144 2.79539 26.6833 3.49236 26.8677C3.63619 26.9048 3.77273 26.9659 3.89625 27.0485C4.13253 27.2554 4.09901 27.567 4.41378 28.0233C4.57179 28.2592 4.77256 28.4633 5.00572 28.6252C5.66633 29.0816 6.4087 29.1102 7.19522 29.1405C7.90571 29.1675 8.71103 29.1986 9.63082 29.502C10.0118 29.6279 10.4075 29.8716 10.8662 30.1562C11.9675 30.8334 13.4751 31.76 15.9982 31.76C18.5213 31.76 20.0395 30.8285 21.149 30.1489C21.6044 29.8692 21.9977 29.6279 22.368 29.5052C23.2878 29.201 24.0932 29.1707 24.8036 29.1438C25.5902 29.1135 26.3325 29.0849 26.9931 28.6285C27.2693 28.4359 27.4993 28.1846 27.6668 27.8925C27.8933 27.5073 27.8876 27.2382 28.1002 27.0501C28.216 26.9715 28.3443 26.9129 28.4795 26.8767C29.186 26.6917 29.867 26.4203 30.5071 26.0687C30.8298 25.8956 31.1202 25.6682 31.3656 25.3964L31.3738 25.3866C31.9821 24.7356 32.135 23.9685 31.8856 23.2913ZM29.643 24.4968C28.2751 25.2525 27.366 25.1715 26.6588 25.6271C26.0578 26.0139 26.4135 26.8481 25.9769 27.1491C25.4405 27.5195 23.8552 27.1229 21.8072 27.7992C20.118 28.3578 19.0405 29.964 16.0023 29.964C12.9641 29.964 11.9119 28.3611 10.195 27.7951C8.15098 27.1188 6.56241 27.5154 6.02525 27.145C5.58948 26.844 5.94349 26.0098 5.34338 25.623C4.63535 25.1674 3.72619 25.2484 2.35918 24.4968C1.48845 24.0159 1.98227 23.7182 2.27252 23.5776C7.22711 21.1781 8.01772 17.4733 8.05287 17.1985C8.09539 16.8656 8.14281 16.6039 7.77653 16.2653C7.42251 15.9382 5.85192 14.9658 5.41615 14.6616C4.69503 14.1578 4.37781 13.6548 4.61164 13.0365C4.77516 12.6088 5.17414 12.4477 5.59275 12.4477C5.72505 12.4481 5.85691 12.4629 5.98601 12.4918C6.77743 12.6636 7.54597 13.0602 7.98992 13.1674C8.04337 13.1811 8.09826 13.1885 8.15344 13.1895C8.39054 13.1895 8.47393 13.0701 8.45758 12.7985C8.40689 11.9324 8.28425 10.2444 8.42079 8.66684C8.60802 6.49631 9.30705 5.42086 10.1377 4.46972C10.5367 4.01255 12.4114 2.03094 15.9966 2.03094C19.5817 2.03094 21.4613 4.00437 21.8603 4.4599C22.6918 5.41104 23.3917 6.48649 23.5773 8.65702C23.7138 10.2346 23.5961 11.9234 23.5405 12.7887C23.5217 13.0741 23.6075 13.1796 23.8446 13.1796C23.8998 13.1788 23.9547 13.1713 24.0081 13.1576C24.4529 13.0504 25.2214 12.6538 26.0129 12.482C26.142 12.4531 26.2738 12.4383 26.4061 12.4379C26.8272 12.4379 27.2237 12.6014 27.3872 13.0267C27.6211 13.645 27.3055 14.148 26.5835 14.6517C26.1478 14.956 24.5772 15.9276 24.2232 16.2555C23.8561 16.5941 23.9043 16.8558 23.9468 17.1887C23.982 17.4675 24.7718 21.1723 29.7272 23.5678C30.0199 23.7142 30.5137 24.0118 29.643 24.4968Z" fill="#DBCCFF"/>
</svg>
